<mxfile host="app.diagrams.net" modified="2024-03-20T04:01:26.985Z" agent="Mozilla/5.0 (X11; Ubuntu; Linux x86_64; rv:123.0) Gecko/20100101 Firefox/123.0" etag="S91u5qsLnVbC5ixRNCwJ" version="24.0.6" type="github">
  <diagram name="Page-1" id="P_324fa_6yjke-Muh9tB">
    <mxGraphModel dx="874" dy="1079" grid="1" gridSize="10" guides="1" tooltips="1" connect="1" arrows="1" fold="1" page="1" pageScale="1" pageWidth="850" pageHeight="1100" math="0" shadow="0">
      <root>
        <mxCell id="0" />
        <mxCell id="1" parent="0" />
        <mxCell id="LlWjDGCFj3o7en6xaWXe-5" value="Transformer" style="rounded=0;whiteSpace=wrap;html=1;align=left;verticalAlign=top;horizontal=1;" parent="1" vertex="1">
          <mxGeometry x="600" y="300" width="260" height="470" as="geometry" />
        </mxCell>
        <mxCell id="F4dPGGiIWAzUhIJDrd0Z-64" style="edgeStyle=orthogonalEdgeStyle;rounded=0;orthogonalLoop=1;jettySize=auto;html=1;exitX=1;exitY=0.5;exitDx=0;exitDy=0;entryX=0;entryY=0.5;entryDx=0;entryDy=0;endArrow=blockThin;endFill=1;" parent="1" source="LlWjDGCFj3o7en6xaWXe-3" target="LlWjDGCFj3o7en6xaWXe-7" edge="1">
          <mxGeometry relative="1" as="geometry" />
        </mxCell>
        <mxCell id="LlWjDGCFj3o7en6xaWXe-3" value="main.py" style="rounded=1;whiteSpace=wrap;html=1;" parent="1" vertex="1">
          <mxGeometry x="120" y="335" width="120" height="60" as="geometry" />
        </mxCell>
        <mxCell id="F4dPGGiIWAzUhIJDrd0Z-77" style="rounded=0;orthogonalLoop=1;jettySize=auto;html=1;exitX=0.5;exitY=0;exitDx=0;exitDy=0;entryX=0.5;entryY=0;entryDx=0;entryDy=0;endArrow=blockThin;endFill=1;strokeWidth=0.5;" parent="1" source="LlWjDGCFj3o7en6xaWXe-5" target="F4dPGGiIWAzUhIJDrd0Z-75" edge="1">
          <mxGeometry relative="1" as="geometry" />
        </mxCell>
        <mxCell id="u_fP44PUVlHmzvpXEfDr-6" value="Index" style="edgeLabel;html=1;align=center;verticalAlign=middle;resizable=0;points=[];" parent="F4dPGGiIWAzUhIJDrd0Z-77" vertex="1" connectable="0">
          <mxGeometry x="-0.0574" y="1" relative="1" as="geometry">
            <mxPoint as="offset" />
          </mxGeometry>
        </mxCell>
        <mxCell id="LlWjDGCFj3o7en6xaWXe-6" value="preprocess.py" style="rounded=1;whiteSpace=wrap;html=1;" parent="1" vertex="1">
          <mxGeometry x="300" y="520" width="80" height="40" as="geometry" />
        </mxCell>
        <mxCell id="F4dPGGiIWAzUhIJDrd0Z-65" style="edgeStyle=orthogonalEdgeStyle;rounded=0;orthogonalLoop=1;jettySize=auto;html=1;exitX=1;exitY=0.5;exitDx=0;exitDy=0;endArrow=blockThin;endFill=1;" parent="1" source="LlWjDGCFj3o7en6xaWXe-7" edge="1">
          <mxGeometry relative="1" as="geometry">
            <mxPoint x="360" y="365.0344827586207" as="targetPoint" />
          </mxGeometry>
        </mxCell>
        <mxCell id="LlWjDGCFj3o7en6xaWXe-7" value="train.py" style="rounded=1;whiteSpace=wrap;html=1;" parent="1" vertex="1">
          <mxGeometry x="270" y="355" width="60" height="20" as="geometry" />
        </mxCell>
        <mxCell id="LlWjDGCFj3o7en6xaWXe-9" value="" style="endArrow=blockThin;html=1;rounded=0;exitX=0.5;exitY=1;exitDx=0;exitDy=0;entryX=0;entryY=0.5;entryDx=0;entryDy=0;endFill=1;edgeStyle=elbowEdgeStyle;" parent="1" source="LlWjDGCFj3o7en6xaWXe-3" target="LlWjDGCFj3o7en6xaWXe-6" edge="1">
          <mxGeometry width="50" height="50" relative="1" as="geometry">
            <mxPoint x="220" y="460" as="sourcePoint" />
            <mxPoint x="270" y="410" as="targetPoint" />
            <Array as="points">
              <mxPoint x="180" y="480" />
            </Array>
          </mxGeometry>
        </mxCell>
        <mxCell id="LlWjDGCFj3o7en6xaWXe-10" value="&lt;div&gt;Raw Data Categorization&lt;/div&gt;&lt;div&gt;Train/Valid/Test&lt;br&gt;&lt;/div&gt;" style="edgeLabel;html=1;align=center;verticalAlign=middle;resizable=0;points=[];" parent="LlWjDGCFj3o7en6xaWXe-9" vertex="1" connectable="0">
          <mxGeometry x="0.0388" relative="1" as="geometry">
            <mxPoint as="offset" />
          </mxGeometry>
        </mxCell>
        <mxCell id="LlWjDGCFj3o7en6xaWXe-11" value="" style="endArrow=blockThin;html=1;rounded=0;exitX=0.5;exitY=0;exitDx=0;exitDy=0;endFill=1;edgeStyle=elbowEdgeStyle;spacing=1;entryX=-0.001;entryY=0.374;entryDx=0;entryDy=0;entryPerimeter=0;" parent="1" source="LlWjDGCFj3o7en6xaWXe-3" target="LlWjDGCFj3o7en6xaWXe-8" edge="1">
          <mxGeometry width="50" height="50" relative="1" as="geometry">
            <mxPoint x="170" y="300" as="sourcePoint" />
            <mxPoint x="140" y="140" as="targetPoint" />
            <Array as="points">
              <mxPoint x="180" y="250" />
            </Array>
          </mxGeometry>
        </mxCell>
        <mxCell id="LlWjDGCFj3o7en6xaWXe-12" value="Vocab Gen/Load" style="edgeLabel;html=1;align=center;verticalAlign=middle;resizable=0;points=[];" parent="LlWjDGCFj3o7en6xaWXe-11" vertex="1" connectable="0">
          <mxGeometry y="-3" relative="1" as="geometry">
            <mxPoint y="21" as="offset" />
          </mxGeometry>
        </mxCell>
        <mxCell id="LlWjDGCFj3o7en6xaWXe-13" value="" style="endArrow=blockThin;html=1;rounded=0;exitX=0.5;exitY=0;exitDx=0;exitDy=0;entryX=0.5;entryY=1;entryDx=0;entryDy=0;entryPerimeter=0;endFill=1;" parent="1" source="LlWjDGCFj3o7en6xaWXe-6" target="LlWjDGCFj3o7en6xaWXe-15" edge="1">
          <mxGeometry width="50" height="50" relative="1" as="geometry">
            <mxPoint x="400" y="500" as="sourcePoint" />
            <mxPoint x="360" y="500" as="targetPoint" />
          </mxGeometry>
        </mxCell>
        <mxCell id="LlWjDGCFj3o7en6xaWXe-15" value="&lt;div style=&quot;font-size: 10px;&quot;&gt;&lt;font style=&quot;font-size: 10px;&quot;&gt;Train/Valid/Test&lt;br style=&quot;font-size: 10px;&quot;&gt;&lt;/font&gt;&lt;/div&gt;&lt;div style=&quot;font-size: 10px;&quot;&gt;&lt;font style=&quot;font-size: 10px;&quot;&gt;SMILES&lt;/font&gt;&lt;/div&gt;" style="shape=note;whiteSpace=wrap;html=1;backgroundOutline=1;darkOpacity=0.05;size=9;fontSize=10;" parent="1" vertex="1">
          <mxGeometry x="300" y="470" width="80" height="40" as="geometry" />
        </mxCell>
        <mxCell id="LlWjDGCFj3o7en6xaWXe-23" style="rounded=0;orthogonalLoop=1;jettySize=auto;html=1;exitX=0.5;exitY=0;exitDx=0;exitDy=0;exitPerimeter=0;entryX=0.25;entryY=1;entryDx=0;entryDy=0;endArrow=blockThin;endFill=1;strokeColor=#000000;" parent="1" source="LlWjDGCFj3o7en6xaWXe-15" target="LlWjDGCFj3o7en6xaWXe-27" edge="1">
          <mxGeometry relative="1" as="geometry" />
        </mxCell>
        <mxCell id="F4dPGGiIWAzUhIJDrd0Z-24" value="SMILES" style="edgeLabel;html=1;align=center;verticalAlign=middle;resizable=0;points=[];" parent="LlWjDGCFj3o7en6xaWXe-23" vertex="1" connectable="0">
          <mxGeometry x="0.0793" y="1" relative="1" as="geometry">
            <mxPoint as="offset" />
          </mxGeometry>
        </mxCell>
        <mxCell id="J6uo8NXID0gWZEXgctfa-1" style="rounded=0;orthogonalLoop=1;jettySize=auto;html=1;endArrow=blockThin;endFill=1;startArrow=none;startFill=0;exitX=0;exitY=0.5;exitDx=0;exitDy=0;edgeStyle=elbowEdgeStyle;elbow=vertical;" parent="1" edge="1">
          <mxGeometry relative="1" as="geometry">
            <mxPoint x="360" y="320" as="sourcePoint" />
            <mxPoint x="280" y="240" as="targetPoint" />
            <Array as="points">
              <mxPoint x="310" y="320" />
            </Array>
          </mxGeometry>
        </mxCell>
        <mxCell id="F4dPGGiIWAzUhIJDrd0Z-39" value="Chem.Mol" style="edgeLabel;html=1;align=center;verticalAlign=middle;resizable=0;points=[];" parent="J6uo8NXID0gWZEXgctfa-1" vertex="1" connectable="0">
          <mxGeometry x="-0.6234" relative="1" as="geometry">
            <mxPoint x="-46" as="offset" />
          </mxGeometry>
        </mxCell>
        <mxCell id="F4dPGGiIWAzUhIJDrd0Z-12" value="&lt;div style=&quot;font-size: 10px;&quot;&gt;Tokenized Data&lt;/div&gt;" style="shape=note;whiteSpace=wrap;html=1;backgroundOutline=1;darkOpacity=0.05;size=9;fontSize=10;" parent="1" vertex="1">
          <mxGeometry x="420" y="470" width="80" height="40" as="geometry" />
        </mxCell>
        <mxCell id="F4dPGGiIWAzUhIJDrd0Z-18" value="" style="group" parent="1" vertex="1" connectable="0">
          <mxGeometry x="360" y="300" width="200" height="130" as="geometry" />
        </mxCell>
        <mxCell id="LlWjDGCFj3o7en6xaWXe-4" value="data.py&lt;div&gt;Dataset&lt;/div&gt;" style="rounded=0;whiteSpace=wrap;html=1;horizontal=1;verticalAlign=top;glass=0;shadow=0;textShadow=0;align=right;" parent="F4dPGGiIWAzUhIJDrd0Z-18" vertex="1">
          <mxGeometry width="200" height="130" as="geometry" />
        </mxCell>
        <mxCell id="F4dPGGiIWAzUhIJDrd0Z-16" style="rounded=0;orthogonalLoop=1;jettySize=auto;html=1;exitX=1;exitY=0.5;exitDx=0;exitDy=0;entryX=0;entryY=0.5;entryDx=0;entryDy=0;endArrow=blockThin;endFill=1;strokeWidth=0.5;" parent="F4dPGGiIWAzUhIJDrd0Z-18" source="LlWjDGCFj3o7en6xaWXe-27" target="F4dPGGiIWAzUhIJDrd0Z-15" edge="1">
          <mxGeometry relative="1" as="geometry" />
        </mxCell>
        <mxCell id="LlWjDGCFj3o7en6xaWXe-27" value="tokenize_mp" style="rounded=0;whiteSpace=wrap;html=1;" parent="F4dPGGiIWAzUhIJDrd0Z-18" vertex="1">
          <mxGeometry y="90" width="80" height="40" as="geometry" />
        </mxCell>
        <mxCell id="J6uo8NXID0gWZEXgctfa-9" value="" style="endArrow=blockThin;html=1;rounded=0;exitX=0.25;exitY=0;exitDx=0;exitDy=0;entryX=0.25;entryY=1;entryDx=0;entryDy=0;endFill=1;strokeWidth=0.5;" parent="F4dPGGiIWAzUhIJDrd0Z-18" source="LlWjDGCFj3o7en6xaWXe-27" edge="1">
          <mxGeometry width="50" height="50" relative="1" as="geometry">
            <mxPoint x="30" y="80" as="sourcePoint" />
            <mxPoint x="20" y="40" as="targetPoint" />
          </mxGeometry>
        </mxCell>
        <mxCell id="F4dPGGiIWAzUhIJDrd0Z-25" value="SMILES" style="edgeLabel;html=1;align=center;verticalAlign=middle;resizable=0;points=[];" parent="J6uo8NXID0gWZEXgctfa-9" vertex="1" connectable="0">
          <mxGeometry x="0.0124" relative="1" as="geometry">
            <mxPoint as="offset" />
          </mxGeometry>
        </mxCell>
        <mxCell id="J6uo8NXID0gWZEXgctfa-11" value="" style="endArrow=blockThin;html=1;rounded=0;exitX=0.75;exitY=1;exitDx=0;exitDy=0;entryX=0.75;entryY=0;entryDx=0;entryDy=0;endFill=1;strokeWidth=0.5;" parent="F4dPGGiIWAzUhIJDrd0Z-18" target="LlWjDGCFj3o7en6xaWXe-27" edge="1">
          <mxGeometry width="50" height="50" relative="1" as="geometry">
            <mxPoint x="60" y="40" as="sourcePoint" />
            <mxPoint x="60" y="90" as="targetPoint" />
          </mxGeometry>
        </mxCell>
        <mxCell id="F4dPGGiIWAzUhIJDrd0Z-35" value="Vocab&lt;div&gt;Index&lt;/div&gt;" style="edgeLabel;html=1;align=center;verticalAlign=middle;resizable=0;points=[];" parent="J6uo8NXID0gWZEXgctfa-11" vertex="1" connectable="0">
          <mxGeometry y="-1" relative="1" as="geometry">
            <mxPoint as="offset" />
          </mxGeometry>
        </mxCell>
        <mxCell id="F4dPGGiIWAzUhIJDrd0Z-15" value="collate_fn" style="rounded=0;whiteSpace=wrap;html=1;" parent="F4dPGGiIWAzUhIJDrd0Z-18" vertex="1">
          <mxGeometry x="120" y="90" width="80" height="40" as="geometry" />
        </mxCell>
        <mxCell id="F4dPGGiIWAzUhIJDrd0Z-36" value="" style="rounded=0;whiteSpace=wrap;html=1;" parent="F4dPGGiIWAzUhIJDrd0Z-18" vertex="1">
          <mxGeometry width="80" height="40" as="geometry" />
        </mxCell>
        <mxCell id="F4dPGGiIWAzUhIJDrd0Z-37" value="Workers" style="rounded=0;whiteSpace=wrap;html=1;strokeWidth=1;" parent="F4dPGGiIWAzUhIJDrd0Z-18" vertex="1">
          <mxGeometry x="25" width="30" height="40" as="geometry" />
        </mxCell>
        <mxCell id="F4dPGGiIWAzUhIJDrd0Z-66" value="Mask Train" style="rounded=0;whiteSpace=wrap;html=1;" parent="F4dPGGiIWAzUhIJDrd0Z-18" vertex="1">
          <mxGeometry x="90" y="40" width="90" height="30" as="geometry" />
        </mxCell>
        <mxCell id="F4dPGGiIWAzUhIJDrd0Z-14" style="rounded=0;orthogonalLoop=1;jettySize=auto;html=1;entryX=0.5;entryY=0;entryDx=0;entryDy=0;entryPerimeter=0;startArrow=blockThin;startFill=1;endArrow=blockThin;endFill=1;" parent="1" target="F4dPGGiIWAzUhIJDrd0Z-12" edge="1">
          <mxGeometry relative="1" as="geometry">
            <mxPoint x="460" y="410" as="sourcePoint" />
          </mxGeometry>
        </mxCell>
        <mxCell id="F4dPGGiIWAzUhIJDrd0Z-21" value="&lt;div style=&quot;font-size: 10px;&quot;&gt;Generated&lt;/div&gt;&lt;div style=&quot;font-size: 10px;&quot;&gt;Vocab&lt;/div&gt;" style="shape=note;whiteSpace=wrap;html=1;backgroundOutline=1;darkOpacity=0.05;size=9;fontSize=10;" parent="1" vertex="1">
          <mxGeometry x="450" y="140" width="80" height="40" as="geometry" />
        </mxCell>
        <mxCell id="F4dPGGiIWAzUhIJDrd0Z-22" style="edgeStyle=orthogonalEdgeStyle;rounded=0;orthogonalLoop=1;jettySize=auto;html=1;exitX=0.75;exitY=1;exitDx=0;exitDy=0;entryX=0;entryY=0.5;entryDx=0;entryDy=0;entryPerimeter=0;" parent="1" source="LlWjDGCFj3o7en6xaWXe-3" target="LlWjDGCFj3o7en6xaWXe-15" edge="1">
          <mxGeometry relative="1" as="geometry" />
        </mxCell>
        <mxCell id="F4dPGGiIWAzUhIJDrd0Z-23" value="Raw Data Load" style="edgeLabel;html=1;align=center;verticalAlign=middle;resizable=0;points=[];" parent="F4dPGGiIWAzUhIJDrd0Z-22" vertex="1" connectable="0">
          <mxGeometry x="0.206" relative="1" as="geometry">
            <mxPoint as="offset" />
          </mxGeometry>
        </mxCell>
        <mxCell id="F4dPGGiIWAzUhIJDrd0Z-46" value="" style="group" parent="1" vertex="1" connectable="0">
          <mxGeometry x="200" y="80" width="210" height="160" as="geometry" />
        </mxCell>
        <mxCell id="LlWjDGCFj3o7en6xaWXe-8" value="vocab.py&lt;div&gt;Vocab&lt;/div&gt;" style="rounded=0;whiteSpace=wrap;html=1;align=left;verticalAlign=top;" parent="F4dPGGiIWAzUhIJDrd0Z-46" vertex="1">
          <mxGeometry width="210" height="160" as="geometry" />
        </mxCell>
        <mxCell id="F4dPGGiIWAzUhIJDrd0Z-41" value="Tokenizer" style="rounded=0;whiteSpace=wrap;html=1;" parent="F4dPGGiIWAzUhIJDrd0Z-46" vertex="1">
          <mxGeometry x="30" y="50.666666666666664" width="100" height="58.666666666666664" as="geometry" />
        </mxCell>
        <mxCell id="F4dPGGiIWAzUhIJDrd0Z-43" value="Index tokens by vocab" style="rounded=0;whiteSpace=wrap;html=1;" parent="F4dPGGiIWAzUhIJDrd0Z-46" vertex="1">
          <mxGeometry x="120" y="128" width="90" height="32" as="geometry" />
        </mxCell>
        <mxCell id="F4dPGGiIWAzUhIJDrd0Z-45" value="" style="endArrow=blockThin;html=1;rounded=0;entryX=0;entryY=0;entryDx=0;entryDy=0;entryPerimeter=0;strokeWidth=0.5;endFill=1;" parent="F4dPGGiIWAzUhIJDrd0Z-46" edge="1">
          <mxGeometry width="50" height="50" relative="1" as="geometry">
            <mxPoint y="60" as="sourcePoint" />
            <mxPoint x="250" y="60" as="targetPoint" />
          </mxGeometry>
        </mxCell>
        <mxCell id="F4dPGGiIWAzUhIJDrd0Z-55" value="Tokens" style="edgeLabel;html=1;align=center;verticalAlign=middle;resizable=0;points=[];" parent="F4dPGGiIWAzUhIJDrd0Z-45" vertex="1" connectable="0">
          <mxGeometry x="0.4367" relative="1" as="geometry">
            <mxPoint x="10" as="offset" />
          </mxGeometry>
        </mxCell>
        <mxCell id="F4dPGGiIWAzUhIJDrd0Z-63" value="Raw&lt;div&gt;Data&lt;/div&gt;" style="edgeLabel;html=1;align=center;verticalAlign=middle;resizable=0;points=[];" parent="F4dPGGiIWAzUhIJDrd0Z-45" vertex="1" connectable="0">
          <mxGeometry x="-0.8701" y="1" relative="1" as="geometry">
            <mxPoint x="-2" y="15" as="offset" />
          </mxGeometry>
        </mxCell>
        <mxCell id="F4dPGGiIWAzUhIJDrd0Z-51" value="" style="endArrow=classic;html=1;rounded=0;exitX=0.381;exitY=0.999;exitDx=0;exitDy=0;exitPerimeter=0;entryX=0.25;entryY=0;entryDx=0;entryDy=0;strokeWidth=0.5;" parent="F4dPGGiIWAzUhIJDrd0Z-46" source="LlWjDGCFj3o7en6xaWXe-8" target="F4dPGGiIWAzUhIJDrd0Z-43" edge="1">
          <mxGeometry width="50" height="50" relative="1" as="geometry">
            <mxPoint x="90" y="140" as="sourcePoint" />
            <mxPoint x="140" y="90" as="targetPoint" />
            <Array as="points">
              <mxPoint x="80" y="100" />
              <mxPoint x="143" y="100" />
            </Array>
          </mxGeometry>
        </mxCell>
        <mxCell id="F4dPGGiIWAzUhIJDrd0Z-53" value="Tokens" style="edgeLabel;html=1;align=center;verticalAlign=middle;resizable=0;points=[];" parent="F4dPGGiIWAzUhIJDrd0Z-51" vertex="1" connectable="0">
          <mxGeometry x="0.84" relative="1" as="geometry">
            <mxPoint as="offset" />
          </mxGeometry>
        </mxCell>
        <mxCell id="F4dPGGiIWAzUhIJDrd0Z-59" value="" style="endArrow=blockThin;html=1;rounded=0;entryX=0.75;entryY=0;entryDx=0;entryDy=0;strokeWidth=0.5;exitX=0.893;exitY=0.625;exitDx=0;exitDy=0;exitPerimeter=0;endFill=1;" parent="F4dPGGiIWAzUhIJDrd0Z-46" edge="1">
          <mxGeometry width="50" height="50" relative="1" as="geometry">
            <mxPoint x="164.79000000000008" y="99.99999999999994" as="sourcePoint" />
            <mxPoint x="164.76" y="128" as="targetPoint" />
          </mxGeometry>
        </mxCell>
        <mxCell id="F4dPGGiIWAzUhIJDrd0Z-61" value="Dictionary" style="rounded=0;whiteSpace=wrap;html=1;" parent="F4dPGGiIWAzUhIJDrd0Z-46" vertex="1">
          <mxGeometry x="150" y="80" width="60" height="20" as="geometry" />
        </mxCell>
        <mxCell id="F4dPGGiIWAzUhIJDrd0Z-67" value="" style="endArrow=blockThin;html=1;rounded=0;entryX=0;entryY=1;entryDx=0;entryDy=0;strokeWidth=0.5;endFill=1;startArrow=blockThin;startFill=1;" parent="F4dPGGiIWAzUhIJDrd0Z-46" target="F4dPGGiIWAzUhIJDrd0Z-66" edge="1">
          <mxGeometry width="50" height="50" relative="1" as="geometry">
            <mxPoint x="250" y="330" as="sourcePoint" />
            <mxPoint x="260" y="70" as="targetPoint" />
          </mxGeometry>
        </mxCell>
        <mxCell id="F4dPGGiIWAzUhIJDrd0Z-49" style="edgeStyle=orthogonalEdgeStyle;rounded=0;orthogonalLoop=1;jettySize=auto;html=1;exitX=0;exitY=0.5;exitDx=0;exitDy=0;exitPerimeter=0;arcSize=10;entryX=1;entryY=0.5;entryDx=0;entryDy=0;endArrow=blockThin;endFill=1;" parent="1" source="F4dPGGiIWAzUhIJDrd0Z-21" target="F4dPGGiIWAzUhIJDrd0Z-61" edge="1">
          <mxGeometry relative="1" as="geometry">
            <mxPoint x="430" y="230" as="targetPoint" />
          </mxGeometry>
        </mxCell>
        <mxCell id="F4dPGGiIWAzUhIJDrd0Z-57" style="edgeStyle=orthogonalEdgeStyle;rounded=0;orthogonalLoop=1;jettySize=auto;html=1;entryX=0.5;entryY=0;entryDx=0;entryDy=0;endArrow=blockThin;endFill=1;" parent="1" source="F4dPGGiIWAzUhIJDrd0Z-43" target="F4dPGGiIWAzUhIJDrd0Z-37" edge="1">
          <mxGeometry relative="1" as="geometry" />
        </mxCell>
        <mxCell id="F4dPGGiIWAzUhIJDrd0Z-58" value="Index of&lt;div&gt;Atom/Edge&lt;/div&gt;" style="edgeLabel;html=1;align=center;verticalAlign=middle;resizable=0;points=[];" parent="F4dPGGiIWAzUhIJDrd0Z-57" vertex="1" connectable="0">
          <mxGeometry x="-0.0182" y="1" relative="1" as="geometry">
            <mxPoint as="offset" />
          </mxGeometry>
        </mxCell>
        <mxCell id="F4dPGGiIWAzUhIJDrd0Z-72" style="rounded=0;orthogonalLoop=1;jettySize=auto;html=1;exitX=1;exitY=0.5;exitDx=0;exitDy=0;entryX=0.5;entryY=0;entryDx=0;entryDy=0;edgeStyle=orthogonalEdgeStyle;elbow=vertical;endArrow=blockThin;endFill=1;" parent="1" source="F4dPGGiIWAzUhIJDrd0Z-15" target="LlWjDGCFj3o7en6xaWXe-5" edge="1">
          <mxGeometry relative="1" as="geometry" />
        </mxCell>
        <mxCell id="F4dPGGiIWAzUhIJDrd0Z-80" value="Indices of Vocab" style="edgeLabel;html=1;align=center;verticalAlign=middle;resizable=0;points=[];" parent="F4dPGGiIWAzUhIJDrd0Z-72" vertex="1" connectable="0">
          <mxGeometry x="0.4047" relative="1" as="geometry">
            <mxPoint as="offset" />
          </mxGeometry>
        </mxCell>
        <mxCell id="F4dPGGiIWAzUhIJDrd0Z-76" style="rounded=0;orthogonalLoop=1;jettySize=auto;html=1;exitX=0.5;exitY=0;exitDx=0;exitDy=0;entryX=0.5;entryY=0;entryDx=0;entryDy=0;endArrow=blockThin;endFill=1;strokeWidth=0.5;" parent="1" source="LlWjDGCFj3o7en6xaWXe-5" target="F4dPGGiIWAzUhIJDrd0Z-74" edge="1">
          <mxGeometry relative="1" as="geometry" />
        </mxCell>
        <mxCell id="u_fP44PUVlHmzvpXEfDr-5" value="Index" style="edgeLabel;html=1;align=center;verticalAlign=middle;resizable=0;points=[];" parent="F4dPGGiIWAzUhIJDrd0Z-76" vertex="1" connectable="0">
          <mxGeometry x="0.0077" y="-2" relative="1" as="geometry">
            <mxPoint as="offset" />
          </mxGeometry>
        </mxCell>
        <mxCell id="F4dPGGiIWAzUhIJDrd0Z-111" value="Masked Prediction" style="rounded=0;whiteSpace=wrap;html=1;" parent="1" vertex="1">
          <mxGeometry x="665" y="700" width="130" height="20" as="geometry" />
        </mxCell>
        <mxCell id="F4dPGGiIWAzUhIJDrd0Z-113" style="rounded=0;orthogonalLoop=1;jettySize=auto;html=1;exitX=0.5;exitY=1;exitDx=0;exitDy=0;endArrow=blockThin;endFill=1;strokeWidth=0.5;entryX=0.5;entryY=0;entryDx=0;entryDy=0;" parent="1" source="F4dPGGiIWAzUhIJDrd0Z-89" target="F4dPGGiIWAzUhIJDrd0Z-111" edge="1">
          <mxGeometry relative="1" as="geometry">
            <mxPoint x="727.83" y="776.8599999999999" as="targetPoint" />
            <mxPoint x="731.67" y="680" as="sourcePoint" />
          </mxGeometry>
        </mxCell>
        <mxCell id="F4dPGGiIWAzUhIJDrd0Z-114" style="rounded=0;orthogonalLoop=1;jettySize=auto;html=1;exitX=0.5;exitY=1;exitDx=0;exitDy=0;endArrow=blockThin;endFill=1;strokeWidth=0.5;" parent="1" source="F4dPGGiIWAzUhIJDrd0Z-111" edge="1">
          <mxGeometry relative="1" as="geometry">
            <mxPoint x="730" y="740" as="targetPoint" />
            <mxPoint x="733.1" y="720" as="sourcePoint" />
          </mxGeometry>
        </mxCell>
        <mxCell id="F4dPGGiIWAzUhIJDrd0Z-115" value="Predicted Index of Mask" style="edgeLabel;html=1;align=center;verticalAlign=middle;resizable=0;points=[];" parent="F4dPGGiIWAzUhIJDrd0Z-114" vertex="1" connectable="0">
          <mxGeometry x="0.5125" y="-1" relative="1" as="geometry">
            <mxPoint x="1" y="15" as="offset" />
          </mxGeometry>
        </mxCell>
        <mxCell id="F4dPGGiIWAzUhIJDrd0Z-154" value="" style="group" parent="1" vertex="1" connectable="0">
          <mxGeometry x="250" y="590" width="160" height="180" as="geometry" />
        </mxCell>
        <mxCell id="F4dPGGiIWAzUhIJDrd0Z-117" value="" style="rounded=0;whiteSpace=wrap;html=1;verticalAlign=top;align=left;spacingLeft=1;" parent="F4dPGGiIWAzUhIJDrd0Z-154" vertex="1">
          <mxGeometry width="160" height="180" as="geometry" />
        </mxCell>
        <mxCell id="F4dPGGiIWAzUhIJDrd0Z-123" value="" style="endArrow=none;html=1;rounded=0;entryX=0.75;entryY=0;entryDx=0;entryDy=0;exitX=0.25;exitY=0;exitDx=0;exitDy=0;" parent="F4dPGGiIWAzUhIJDrd0Z-154" source="F4dPGGiIWAzUhIJDrd0Z-117" target="F4dPGGiIWAzUhIJDrd0Z-117" edge="1">
          <mxGeometry width="50" height="50" relative="1" as="geometry">
            <mxPoint x="20" as="sourcePoint" />
            <mxPoint x="10" as="targetPoint" />
          </mxGeometry>
        </mxCell>
        <mxCell id="F4dPGGiIWAzUhIJDrd0Z-124" value="train.py" style="edgeLabel;html=1;align=center;verticalAlign=middle;resizable=0;points=[];" parent="F4dPGGiIWAzUhIJDrd0Z-123" vertex="1" connectable="0">
          <mxGeometry relative="1" as="geometry">
            <mxPoint as="offset" />
          </mxGeometry>
        </mxCell>
        <mxCell id="F4dPGGiIWAzUhIJDrd0Z-129" value="" style="endArrow=none;html=1;rounded=0;exitX=0.448;exitY=0;exitDx=0;exitDy=0;exitPerimeter=0;entryX=0.528;entryY=0;entryDx=0;entryDy=0;entryPerimeter=0;fontSize=7;" parent="F4dPGGiIWAzUhIJDrd0Z-154" edge="1">
          <mxGeometry width="50" height="50" relative="1" as="geometry">
            <mxPoint x="117.99758620689659" y="9.779999999999973" as="sourcePoint" />
            <mxPoint x="141.99758620689664" y="9.779999999999973" as="targetPoint" />
          </mxGeometry>
        </mxCell>
        <mxCell id="F4dPGGiIWAzUhIJDrd0Z-130" value="Per epoch" style="edgeLabel;html=1;align=center;verticalAlign=middle;resizable=0;points=[];fontSize=8;" parent="F4dPGGiIWAzUhIJDrd0Z-129" vertex="1" connectable="0">
          <mxGeometry relative="1" as="geometry">
            <mxPoint as="offset" />
          </mxGeometry>
        </mxCell>
        <mxCell id="F4dPGGiIWAzUhIJDrd0Z-122" value="" style="rounded=0;whiteSpace=wrap;html=1;verticalAlign=top;align=left;" parent="F4dPGGiIWAzUhIJDrd0Z-154" vertex="1">
          <mxGeometry y="20" width="160" height="160" as="geometry" />
        </mxCell>
        <mxCell id="F4dPGGiIWAzUhIJDrd0Z-125" value="" style="endArrow=none;html=1;rounded=0;entryX=0.75;entryY=0;entryDx=0;entryDy=0;exitX=0.25;exitY=0;exitDx=0;exitDy=0;" parent="F4dPGGiIWAzUhIJDrd0Z-154" source="F4dPGGiIWAzUhIJDrd0Z-122" target="F4dPGGiIWAzUhIJDrd0Z-122" edge="1">
          <mxGeometry width="50" height="50" relative="1" as="geometry">
            <mxPoint x="10" y="20" as="sourcePoint" />
            <mxPoint x="12.802758620689815" y="20" as="targetPoint" />
          </mxGeometry>
        </mxCell>
        <mxCell id="F4dPGGiIWAzUhIJDrd0Z-126" value="run" style="edgeLabel;html=1;align=center;verticalAlign=middle;resizable=0;points=[];" parent="F4dPGGiIWAzUhIJDrd0Z-125" vertex="1" connectable="0">
          <mxGeometry relative="1" as="geometry">
            <mxPoint as="offset" />
          </mxGeometry>
        </mxCell>
        <mxCell id="F4dPGGiIWAzUhIJDrd0Z-131" value="" style="endArrow=none;html=1;rounded=0;exitX=0.448;exitY=0;exitDx=0;exitDy=0;exitPerimeter=0;entryX=0.528;entryY=0;entryDx=0;entryDy=0;entryPerimeter=0;fontSize=7;" parent="F4dPGGiIWAzUhIJDrd0Z-154" edge="1">
          <mxGeometry width="50" height="50" relative="1" as="geometry">
            <mxPoint x="117.99758620689659" y="29.779999999999973" as="sourcePoint" />
            <mxPoint x="141.99758620689664" y="29.779999999999973" as="targetPoint" />
          </mxGeometry>
        </mxCell>
        <mxCell id="F4dPGGiIWAzUhIJDrd0Z-132" value="Per batch" style="edgeLabel;html=1;align=center;verticalAlign=middle;resizable=0;points=[];fontSize=8;" parent="F4dPGGiIWAzUhIJDrd0Z-131" vertex="1" connectable="0">
          <mxGeometry relative="1" as="geometry">
            <mxPoint as="offset" />
          </mxGeometry>
        </mxCell>
        <mxCell id="F4dPGGiIWAzUhIJDrd0Z-121" value="Loss" style="rounded=0;whiteSpace=wrap;html=1;" parent="F4dPGGiIWAzUhIJDrd0Z-154" vertex="1">
          <mxGeometry x="100" y="40" width="40" height="20" as="geometry" />
        </mxCell>
        <mxCell id="F4dPGGiIWAzUhIJDrd0Z-133" style="edgeStyle=orthogonalEdgeStyle;rounded=0;orthogonalLoop=1;jettySize=auto;html=1;exitX=0;exitY=0.5;exitDx=0;exitDy=0;entryX=1;entryY=0.5;entryDx=0;entryDy=0;strokeWidth=0.5;endArrow=blockThin;endFill=1;" parent="F4dPGGiIWAzUhIJDrd0Z-154" source="F4dPGGiIWAzUhIJDrd0Z-121" target="F4dPGGiIWAzUhIJDrd0Z-134" edge="1">
          <mxGeometry relative="1" as="geometry" />
        </mxCell>
        <mxCell id="F4dPGGiIWAzUhIJDrd0Z-151" style="edgeStyle=orthogonalEdgeStyle;rounded=0;orthogonalLoop=1;jettySize=auto;html=1;exitX=0;exitY=0.5;exitDx=0;exitDy=0;entryX=0;entryY=0.5;entryDx=0;entryDy=0;strokeWidth=0.5;endArrow=blockThin;endFill=1;" parent="F4dPGGiIWAzUhIJDrd0Z-154" source="F4dPGGiIWAzUhIJDrd0Z-134" target="F4dPGGiIWAzUhIJDrd0Z-135" edge="1">
          <mxGeometry relative="1" as="geometry" />
        </mxCell>
        <mxCell id="F4dPGGiIWAzUhIJDrd0Z-134" value="NLLLoss" style="rounded=0;whiteSpace=wrap;html=1;" parent="F4dPGGiIWAzUhIJDrd0Z-154" vertex="1">
          <mxGeometry x="30" y="40" width="50" height="20" as="geometry" />
        </mxCell>
        <mxCell id="F4dPGGiIWAzUhIJDrd0Z-135" value="Backpropagate&lt;div&gt;by Adam&lt;/div&gt;" style="rounded=0;whiteSpace=wrap;html=1;" parent="F4dPGGiIWAzUhIJDrd0Z-154" vertex="1">
          <mxGeometry x="30" y="110" width="100" height="40" as="geometry" />
        </mxCell>
        <mxCell id="F4dPGGiIWAzUhIJDrd0Z-118" style="edgeStyle=orthogonalEdgeStyle;rounded=0;orthogonalLoop=1;jettySize=auto;html=1;exitX=0.5;exitY=1;exitDx=0;exitDy=0;entryX=1;entryY=0.5;entryDx=0;entryDy=0;endArrow=blockThin;endFill=1;" parent="1" source="LlWjDGCFj3o7en6xaWXe-5" target="F4dPGGiIWAzUhIJDrd0Z-121" edge="1">
          <mxGeometry relative="1" as="geometry">
            <mxPoint x="409.9999999999999" y="735" as="targetPoint" />
          </mxGeometry>
        </mxCell>
        <mxCell id="F4dPGGiIWAzUhIJDrd0Z-155" style="edgeStyle=orthogonalEdgeStyle;rounded=0;orthogonalLoop=1;jettySize=auto;html=1;exitX=1;exitY=0.5;exitDx=0;exitDy=0;entryX=0;entryY=0.5;entryDx=0;entryDy=0;endArrow=blockThin;endFill=1;" parent="1" source="F4dPGGiIWAzUhIJDrd0Z-135" target="LlWjDGCFj3o7en6xaWXe-5" edge="1">
          <mxGeometry relative="1" as="geometry">
            <Array as="points">
              <mxPoint x="530" y="720" />
              <mxPoint x="530" y="535" />
            </Array>
          </mxGeometry>
        </mxCell>
        <mxCell id="u_fP44PUVlHmzvpXEfDr-1" value="" style="endArrow=none;html=1;rounded=0;" parent="1" edge="1">
          <mxGeometry width="50" height="50" relative="1" as="geometry">
            <mxPoint x="10" y="370" as="sourcePoint" />
            <mxPoint x="60" y="320" as="targetPoint" />
          </mxGeometry>
        </mxCell>
        <mxCell id="0XjlEa74hseHehuqs5fu-1" value="" style="group;fontSize=10;" vertex="1" connectable="0" parent="1">
          <mxGeometry x="610" y="440" width="230" height="240" as="geometry" />
        </mxCell>
        <mxCell id="F4dPGGiIWAzUhIJDrd0Z-89" value="" style="rounded=0;whiteSpace=wrap;html=1;verticalAlign=top;align=right;" parent="0XjlEa74hseHehuqs5fu-1" vertex="1">
          <mxGeometry x="10" width="220" height="240" as="geometry" />
        </mxCell>
        <mxCell id="F4dPGGiIWAzUhIJDrd0Z-91" value="Transformer Block" style="rounded=0;whiteSpace=wrap;html=1;verticalAlign=top;" parent="0XjlEa74hseHehuqs5fu-1" vertex="1">
          <mxGeometry x="20" y="20" width="200" height="210" as="geometry" />
        </mxCell>
        <mxCell id="F4dPGGiIWAzUhIJDrd0Z-101" style="rounded=0;orthogonalLoop=1;jettySize=auto;html=1;exitX=0.5;exitY=1;exitDx=0;exitDy=0;endArrow=blockThin;endFill=1;strokeWidth=0.5;entryX=0.5;entryY=0;entryDx=0;entryDy=0;" parent="0XjlEa74hseHehuqs5fu-1" source="F4dPGGiIWAzUhIJDrd0Z-93" edge="1" target="0XjlEa74hseHehuqs5fu-7">
          <mxGeometry relative="1" as="geometry">
            <mxPoint x="70" y="100" as="targetPoint" />
          </mxGeometry>
        </mxCell>
        <mxCell id="F4dPGGiIWAzUhIJDrd0Z-99" value="" style="group" parent="0XjlEa74hseHehuqs5fu-1" vertex="1" connectable="0">
          <mxGeometry x="30" y="110" width="80" height="110" as="geometry" />
        </mxCell>
        <mxCell id="F4dPGGiIWAzUhIJDrd0Z-84" value="FFN" style="rounded=0;whiteSpace=wrap;html=1;horizontal=1;verticalAlign=top;spacing=0;" parent="F4dPGGiIWAzUhIJDrd0Z-99" vertex="1">
          <mxGeometry width="80" height="90" as="geometry" />
        </mxCell>
        <mxCell id="F4dPGGiIWAzUhIJDrd0Z-94" value="Linear" style="rounded=0;whiteSpace=wrap;html=1;fontSize=10;" parent="F4dPGGiIWAzUhIJDrd0Z-99" vertex="1">
          <mxGeometry x="8" y="20" width="64" height="15" as="geometry" />
        </mxCell>
        <mxCell id="F4dPGGiIWAzUhIJDrd0Z-95" value="GELU" style="rounded=0;whiteSpace=wrap;html=1;fontSize=10;" parent="F4dPGGiIWAzUhIJDrd0Z-99" vertex="1">
          <mxGeometry x="8" y="35" width="64" height="15" as="geometry" />
        </mxCell>
        <mxCell id="F4dPGGiIWAzUhIJDrd0Z-96" value="Linear" style="rounded=0;whiteSpace=wrap;html=1;fontSize=10;" parent="F4dPGGiIWAzUhIJDrd0Z-99" vertex="1">
          <mxGeometry x="8" y="50" width="64" height="15" as="geometry" />
        </mxCell>
        <mxCell id="F4dPGGiIWAzUhIJDrd0Z-97" value="Dropout" style="rounded=0;whiteSpace=wrap;html=1;fontSize=10;" parent="F4dPGGiIWAzUhIJDrd0Z-99" vertex="1">
          <mxGeometry x="8" y="65" width="64" height="15" as="geometry" />
        </mxCell>
        <mxCell id="0XjlEa74hseHehuqs5fu-44" style="rounded=0;orthogonalLoop=1;jettySize=auto;html=1;exitX=0.5;exitY=1;exitDx=0;exitDy=0;endArrow=blockThin;endFill=1;strokeWidth=0.5;entryX=0.5;entryY=0;entryDx=0;entryDy=0;" edge="1" parent="F4dPGGiIWAzUhIJDrd0Z-99" target="0XjlEa74hseHehuqs5fu-38">
          <mxGeometry relative="1" as="geometry">
            <mxPoint x="39.83000000000004" y="105" as="targetPoint" />
            <mxPoint x="39.83000000000004" y="90" as="sourcePoint" />
          </mxGeometry>
        </mxCell>
        <mxCell id="F4dPGGiIWAzUhIJDrd0Z-107" value="" style="endArrow=blockThin;html=1;rounded=0;strokeWidth=0.5;endFill=1;" parent="0XjlEa74hseHehuqs5fu-1" edge="1">
          <mxGeometry width="50" height="50" relative="1" as="geometry">
            <mxPoint x="55" y="10" as="sourcePoint" />
            <mxPoint x="70" y="95" as="targetPoint" />
            <Array as="points">
              <mxPoint y="10" />
              <mxPoint y="90" />
            </Array>
          </mxGeometry>
        </mxCell>
        <mxCell id="F4dPGGiIWAzUhIJDrd0Z-110" value="Residual&lt;div style=&quot;font-size: 8px;&quot;&gt;Connection&lt;/div&gt;" style="edgeLabel;html=1;align=center;verticalAlign=middle;resizable=0;points=[];fontSize=8;" parent="F4dPGGiIWAzUhIJDrd0Z-107" vertex="1" connectable="0">
          <mxGeometry relative="1" as="geometry">
            <mxPoint x="-10" y="5" as="offset" />
          </mxGeometry>
        </mxCell>
        <mxCell id="F4dPGGiIWAzUhIJDrd0Z-108" value="" style="endArrow=none;html=1;rounded=0;entryX=1;entryY=1;entryDx=0;entryDy=0;exitX=0.941;exitY=1.015;exitDx=0;exitDy=0;exitPerimeter=0;elbow=vertical;" parent="0XjlEa74hseHehuqs5fu-1" edge="1" target="F4dPGGiIWAzUhIJDrd0Z-89" source="F4dPGGiIWAzUhIJDrd0Z-89">
          <mxGeometry width="50" height="50" relative="1" as="geometry">
            <mxPoint x="150" y="230" as="sourcePoint" />
            <mxPoint x="160" y="230" as="targetPoint" />
          </mxGeometry>
        </mxCell>
        <mxCell id="F4dPGGiIWAzUhIJDrd0Z-109" value="X N " style="edgeLabel;html=1;align=center;verticalAlign=middle;resizable=0;points=[];" parent="F4dPGGiIWAzUhIJDrd0Z-108" vertex="1" connectable="0">
          <mxGeometry x="0.1021" y="1" relative="1" as="geometry">
            <mxPoint y="1" as="offset" />
          </mxGeometry>
        </mxCell>
        <mxCell id="0XjlEa74hseHehuqs5fu-7" value="Normalize" style="rounded=0;whiteSpace=wrap;html=1;fontSize=10;" vertex="1" parent="0XjlEa74hseHehuqs5fu-1">
          <mxGeometry x="30" y="99" width="80" height="11.25" as="geometry" />
        </mxCell>
        <mxCell id="F4dPGGiIWAzUhIJDrd0Z-83" value="Edge-Biased Atom Attention" style="rounded=0;whiteSpace=wrap;html=1;fontSize=9;" parent="0XjlEa74hseHehuqs5fu-1" vertex="1">
          <mxGeometry x="30" y="50" width="80" height="22.5" as="geometry" />
        </mxCell>
        <mxCell id="0XjlEa74hseHehuqs5fu-30" value="Normalize" style="rounded=0;whiteSpace=wrap;html=1;fontSize=10;" vertex="1" parent="0XjlEa74hseHehuqs5fu-1">
          <mxGeometry x="130" y="99" width="80" height="11.25" as="geometry" />
        </mxCell>
        <mxCell id="0XjlEa74hseHehuqs5fu-31" value="Edge Axial Attention" style="rounded=0;whiteSpace=wrap;html=1;fontSize=9;" vertex="1" parent="0XjlEa74hseHehuqs5fu-1">
          <mxGeometry x="130" y="48.75" width="80" height="23.75" as="geometry" />
        </mxCell>
        <mxCell id="F4dPGGiIWAzUhIJDrd0Z-93" value="&lt;font style=&quot;font-size: 9px;&quot;&gt;Dropout&lt;/font&gt;" style="rounded=0;whiteSpace=wrap;html=1;fontSize=9;" parent="0XjlEa74hseHehuqs5fu-1" vertex="1">
          <mxGeometry x="30" y="72.5" width="80" height="11.25" as="geometry" />
        </mxCell>
        <mxCell id="0XjlEa74hseHehuqs5fu-28" value="&lt;font style=&quot;font-size: 9px;&quot;&gt;Dropout&lt;/font&gt;" style="rounded=0;whiteSpace=wrap;html=1;fontSize=9;" vertex="1" parent="0XjlEa74hseHehuqs5fu-1">
          <mxGeometry x="130" y="72.5" width="80" height="11.25" as="geometry" />
        </mxCell>
        <mxCell id="0XjlEa74hseHehuqs5fu-32" style="rounded=0;orthogonalLoop=1;jettySize=auto;html=1;exitX=0.5;exitY=1;exitDx=0;exitDy=0;endArrow=blockThin;endFill=1;strokeWidth=0.5;entryX=0.5;entryY=0;entryDx=0;entryDy=0;" edge="1" parent="0XjlEa74hseHehuqs5fu-1">
          <mxGeometry relative="1" as="geometry">
            <mxPoint x="169.86" y="99" as="targetPoint" />
            <mxPoint x="169.86" y="84" as="sourcePoint" />
          </mxGeometry>
        </mxCell>
        <mxCell id="0XjlEa74hseHehuqs5fu-33" value="FFN" style="rounded=0;whiteSpace=wrap;html=1;horizontal=1;verticalAlign=top;spacing=0;" vertex="1" parent="0XjlEa74hseHehuqs5fu-1">
          <mxGeometry x="130" y="110" width="80" height="90" as="geometry" />
        </mxCell>
        <mxCell id="0XjlEa74hseHehuqs5fu-34" value="Linear" style="rounded=0;whiteSpace=wrap;html=1;fontSize=10;" vertex="1" parent="0XjlEa74hseHehuqs5fu-1">
          <mxGeometry x="138" y="130" width="64" height="15" as="geometry" />
        </mxCell>
        <mxCell id="0XjlEa74hseHehuqs5fu-35" value="GELU" style="rounded=0;whiteSpace=wrap;html=1;fontSize=10;" vertex="1" parent="0XjlEa74hseHehuqs5fu-1">
          <mxGeometry x="138" y="145" width="64" height="15" as="geometry" />
        </mxCell>
        <mxCell id="0XjlEa74hseHehuqs5fu-36" value="Linear" style="rounded=0;whiteSpace=wrap;html=1;fontSize=10;" vertex="1" parent="0XjlEa74hseHehuqs5fu-1">
          <mxGeometry x="138" y="160" width="64" height="15" as="geometry" />
        </mxCell>
        <mxCell id="0XjlEa74hseHehuqs5fu-37" value="Dropout" style="rounded=0;whiteSpace=wrap;html=1;fontSize=10;" vertex="1" parent="0XjlEa74hseHehuqs5fu-1">
          <mxGeometry x="138" y="175" width="64" height="15" as="geometry" />
        </mxCell>
        <mxCell id="0XjlEa74hseHehuqs5fu-38" value="Normalize" style="rounded=0;whiteSpace=wrap;html=1;fontSize=10;" vertex="1" parent="0XjlEa74hseHehuqs5fu-1">
          <mxGeometry x="30" y="212" width="80" height="11.25" as="geometry" />
        </mxCell>
        <mxCell id="0XjlEa74hseHehuqs5fu-39" value="Normalize" style="rounded=0;whiteSpace=wrap;html=1;fontSize=10;" vertex="1" parent="0XjlEa74hseHehuqs5fu-1">
          <mxGeometry x="130" y="212" width="80" height="11.25" as="geometry" />
        </mxCell>
        <mxCell id="0XjlEa74hseHehuqs5fu-40" value="" style="endArrow=blockThin;html=1;rounded=0;strokeWidth=0.5;endFill=1;" edge="1" parent="0XjlEa74hseHehuqs5fu-1">
          <mxGeometry width="50" height="50" relative="1" as="geometry">
            <mxPoint x="70" y="90" as="sourcePoint" />
            <mxPoint x="70" y="205" as="targetPoint" />
            <Array as="points">
              <mxPoint y="100" />
              <mxPoint y="205" />
            </Array>
          </mxGeometry>
        </mxCell>
        <mxCell id="0XjlEa74hseHehuqs5fu-41" value="Residual&lt;div style=&quot;font-size: 8px;&quot;&gt;Connection&lt;/div&gt;" style="edgeLabel;html=1;align=center;verticalAlign=middle;resizable=0;points=[];fontSize=8;" vertex="1" connectable="0" parent="0XjlEa74hseHehuqs5fu-40">
          <mxGeometry relative="1" as="geometry">
            <mxPoint x="-10" y="5" as="offset" />
          </mxGeometry>
        </mxCell>
        <mxCell id="0XjlEa74hseHehuqs5fu-46" style="rounded=0;orthogonalLoop=1;jettySize=auto;html=1;exitX=0.5;exitY=1;exitDx=0;exitDy=0;endArrow=blockThin;endFill=1;strokeWidth=0.5;entryX=0.5;entryY=0;entryDx=0;entryDy=0;" edge="1" parent="0XjlEa74hseHehuqs5fu-1" source="0XjlEa74hseHehuqs5fu-33" target="0XjlEa74hseHehuqs5fu-39">
          <mxGeometry relative="1" as="geometry">
            <mxPoint x="80" y="222" as="targetPoint" />
            <mxPoint x="79.83000000000004" y="210" as="sourcePoint" />
          </mxGeometry>
        </mxCell>
        <mxCell id="F4dPGGiIWAzUhIJDrd0Z-88" style="rounded=0;orthogonalLoop=1;jettySize=auto;html=1;exitX=0.5;exitY=1;exitDx=0;exitDy=0;endArrow=blockThin;endFill=1;strokeWidth=0.5;elbow=vertical;entryX=0.68;entryY=0.041;entryDx=0;entryDy=0;entryPerimeter=0;" parent="1" source="F4dPGGiIWAzUhIJDrd0Z-86" target="0XjlEa74hseHehuqs5fu-31" edge="1">
          <mxGeometry relative="1" as="geometry">
            <mxPoint x="795" y="480" as="targetPoint" />
          </mxGeometry>
        </mxCell>
        <mxCell id="u_fP44PUVlHmzvpXEfDr-8" value="Embedding" style="edgeLabel;html=1;align=center;verticalAlign=middle;resizable=0;points=[];" parent="F4dPGGiIWAzUhIJDrd0Z-88" vertex="1" connectable="0">
          <mxGeometry x="-0.6245" y="2" relative="1" as="geometry">
            <mxPoint x="-2" y="5" as="offset" />
          </mxGeometry>
        </mxCell>
        <mxCell id="F4dPGGiIWAzUhIJDrd0Z-87" style="rounded=0;orthogonalLoop=1;jettySize=auto;html=1;exitX=0.5;exitY=1;exitDx=0;exitDy=0;endArrow=blockThin;endFill=1;strokeWidth=0.5;edgeStyle=elbowEdgeStyle;elbow=vertical;entryX=0.308;entryY=-0.006;entryDx=0;entryDy=0;entryPerimeter=0;" parent="1" source="F4dPGGiIWAzUhIJDrd0Z-85" target="F4dPGGiIWAzUhIJDrd0Z-83" edge="1">
          <mxGeometry relative="1" as="geometry">
            <mxPoint x="665" y="490" as="targetPoint" />
          </mxGeometry>
        </mxCell>
        <mxCell id="u_fP44PUVlHmzvpXEfDr-7" value="Embedding" style="edgeLabel;html=1;align=center;verticalAlign=middle;resizable=0;points=[];" parent="F4dPGGiIWAzUhIJDrd0Z-87" vertex="1" connectable="0">
          <mxGeometry x="-0.118" y="1" relative="1" as="geometry">
            <mxPoint x="-1" y="-15" as="offset" />
          </mxGeometry>
        </mxCell>
        <mxCell id="0XjlEa74hseHehuqs5fu-3" value="" style="group" vertex="1" connectable="0" parent="1">
          <mxGeometry x="610" y="350" width="110" height="60" as="geometry" />
        </mxCell>
        <mxCell id="F4dPGGiIWAzUhIJDrd0Z-74" value="Atom Embedding" style="rounded=0;whiteSpace=wrap;html=1;" parent="0XjlEa74hseHehuqs5fu-3" vertex="1">
          <mxGeometry width="110.00000000000001" height="30" as="geometry" />
        </mxCell>
        <mxCell id="F4dPGGiIWAzUhIJDrd0Z-85" value="Positional Embedding" style="rounded=0;whiteSpace=wrap;html=1;fontSize=11;" parent="0XjlEa74hseHehuqs5fu-3" vertex="1">
          <mxGeometry y="30" width="110.00000000000001" height="30" as="geometry" />
        </mxCell>
        <mxCell id="0XjlEa74hseHehuqs5fu-4" value="" style="group" vertex="1" connectable="0" parent="1">
          <mxGeometry x="740" y="350" width="110" height="60" as="geometry" />
        </mxCell>
        <mxCell id="F4dPGGiIWAzUhIJDrd0Z-75" value="Edge Embedding" style="rounded=0;whiteSpace=wrap;html=1;" parent="0XjlEa74hseHehuqs5fu-4" vertex="1">
          <mxGeometry width="110" height="30" as="geometry" />
        </mxCell>
        <mxCell id="F4dPGGiIWAzUhIJDrd0Z-86" value="Positional Embedding" style="rounded=0;whiteSpace=wrap;html=1;fontSize=11;" parent="0XjlEa74hseHehuqs5fu-4" vertex="1">
          <mxGeometry y="30" width="110" height="30" as="geometry" />
        </mxCell>
      </root>
    </mxGraphModel>
  </diagram>
</mxfile>
